<?xml version="1.0" standalone="no"?>
<!DOCTYPE svg PUBLIC "-//W3C//DTD SVG 20010904//EN"
 "http://www.w3.org/TR/2001/REC-SVG-20010904/DTD/svg10.dtd">
<svg version="1.0" xmlns="http://www.w3.org/2000/svg"
 width="1024.000000pt" height="1024.000000pt" viewBox="0 0 1024.000000 1024.000000"
 preserveAspectRatio="xMidYMid meet">
<metadata>
Created by potrace 1.16, written by Peter Selinger 2001-2019
</metadata>
<g transform="translate(0.000000,1024.000000) scale(0.100000,-0.100000)"
fill="#000000" stroke="none">
<path d="M0 5120 l0 -5120 5120 0 5120 0 0 5120 0 5120 -5120 0 -5120 0 0
-5120z m5315 4387 c110 -10 130 -15 133 -30 4 -19 -4 -23 -69 -32 l-45 -6 -13
-155 c-7 -86 -11 -157 -9 -158 4 -4 372 -34 376 -31 1 1 8 71 15 156 10 108
10 156 3 161 -6 4 -28 10 -49 14 -39 6 -58 27 -40 45 5 5 71 3 168 -6 88 -8
163 -15 168 -15 4 0 7 -8 7 -19 0 -20 -26 -31 -77 -31 -39 0 -34 27 -70 -398
-30 -358 -32 -335 39 -347 32 -6 38 -11 38 -31 0 -22 -3 -24 -32 -20 -18 3
-97 11 -176 17 -137 11 -143 13 -140 33 3 18 12 22 58 26 l55 5 12 130 c6 72
12 148 12 171 l1 41 -187 15 c-104 8 -189 15 -190 14 0 0 -6 -62 -12 -136 -7
-74 -14 -152 -17 -172 l-6 -37 45 -6 c55 -8 69 -17 61 -38 -7 -20 -16 -20
-204 -4 -126 11 -135 13 -138 33 -3 19 3 22 48 26 28 3 53 7 56 10 5 5 64 656
64 706 0 12 -6 22 -12 22 -7 0 -30 5 -50 11 -27 7 -38 15 -38 29 0 24 19 24
215 7z m-656 -422 l215 -365 53 0 c39 0 55 -4 60 -15 3 -9 3 -19 -1 -22 -7 -7
-307 -62 -339 -63 -13 0 -17 6 -15 22 2 15 16 26 50 37 l46 16 -169 300 c-94
165 -173 303 -177 307 -4 4 -16 -38 -26 -95 -9 -56 -37 -213 -60 -349 l-43
-248 58 0 c52 0 59 -2 59 -20 0 -22 2 -22 -159 -50 -91 -16 -116 -17 -123 -8
-12 20 -5 30 37 46 22 8 41 16 43 17 1 1 32 166 67 366 81 456 81 459 89 466
6 7 68 20 101 22 16 1 62 -70 234 -364z m1719 264 c59 -23 109 -44 112 -46 3
-3 9 -158 15 -346 l10 -341 249 237 c136 130 254 237 262 237 18 0 224 -82
224 -89 0 -3 -4 -13 -10 -21 -7 -12 -18 -12 -60 -4 -45 9 -53 9 -58 -5 -3 -9
-63 -161 -133 -339 l-127 -323 44 -25 c45 -27 61 -65 27 -63 -10 0 -83 26
-163 58 -118 46 -145 61 -145 76 0 17 6 19 35 16 90 -10 73 -32 182 244 54
138 105 267 113 288 8 20 13 37 10 37 -3 0 -127 -117 -277 -260 -150 -143
-277 -259 -283 -257 -15 5 -24 135 -32 469 l-8 298 -116 -298 -116 -297 48
-28 c51 -30 54 -34 40 -55 -7 -11 -36 -3 -142 38 -74 29 -135 54 -137 55 -1 1
1 10 4 20 6 14 14 16 43 11 20 -4 44 -7 54 -9 15 -2 40 53 148 328 71 181 129
335 129 341 0 5 -18 20 -40 33 -41 23 -56 61 -24 61 8 0 64 -19 122 -41z
m-2701 -204 c39 -90 40 -96 23 -105 -27 -15 -27 -15 -66 45 -41 65 -24 66
-210 -12 l-131 -55 60 -137 c33 -75 63 -140 67 -144 4 -4 51 11 104 35 90 39
97 44 91 66 -18 73 -18 80 5 87 12 4 23 5 25 3 1 -1 26 -55 54 -118 46 -105
49 -116 34 -127 -24 -19 -28 -17 -57 27 -14 22 -28 40 -31 40 -5 0 -187 -80
-193 -85 -2 -2 127 -297 131 -301 3 -3 199 85 265 118 l64 32 -8 55 c-13 97
-11 116 12 119 18 3 26 -11 58 -99 23 -60 34 -105 29 -110 -19 -19 -597 -270
-610 -265 -24 10 -13 33 28 60 28 19 39 33 36 44 -7 25 -278 636 -286 644 -3
4 -29 1 -56 -7 -39 -12 -50 -13 -57 -3 -4 7 -6 17 -5 22 3 8 557 262 577 265
3 1 24 -42 47 -94z m-899 -455 c140 -26 274 -146 355 -317 36 -77 47 -178 28
-250 -28 -102 -151 -232 -278 -291 -51 -23 -70 -27 -153 -27 -124 0 -167 21
-276 130 -64 64 -90 100 -125 170 -42 84 -44 93 -44 174 1 111 24 161 119 257
79 78 155 126 237 148 66 18 74 18 137 6z m5058 -96 c24 -19 44 -41 44 -47 0
-7 -56 -190 -124 -407 l-124 -395 36 -38 c30 -31 35 -41 26 -55 -6 -9 -13 -17
-16 -17 -14 0 -278 212 -278 223 0 24 30 24 73 -1 l43 -26 37 113 c20 61 37
115 37 118 0 3 -51 46 -112 94 -62 48 -119 91 -125 97 -9 7 -37 -6 -95 -43
-135 -84 -127 -73 -83 -121 33 -37 35 -43 22 -57 -14 -13 -25 -7 -112 59 -53
41 -104 80 -113 87 -15 11 -15 14 0 28 14 14 19 14 57 -6 l42 -21 352 225
c194 123 356 225 361 225 5 1 29 -15 52 -35z m-2317 -419 c340 -43 645 -134
954 -282 86 -42 155 -78 153 -81 -3 -2 -33 -14 -68 -26 -349 -123 -632 -404
-734 -729 l-18 -59 -46 7 c-80 11 -82 12 -65 45 21 40 8 47 -115 60 -127 15
-205 5 -336 -41 -49 -17 -100 -31 -114 -31 -14 0 -64 14 -111 31 -124 45 -222
57 -346 41 -125 -15 -134 -19 -110 -59 l17 -29 -50 -11 c-28 -6 -56 -11 -63
-11 -7 0 -23 30 -36 68 -80 231 -232 428 -441 572 -72 49 -220 123 -292 146
-32 10 -58 22 -58 27 0 14 272 140 423 196 238 88 498 148 772 176 163 18 513
12 684 -10z m-1944 -444 c229 -57 430 -184 584 -367 83 -99 130 -176 170 -274
47 -118 47 -121 6 -148 -19 -12 -48 -40 -63 -61 l-28 -39 -29 65 c-86 197
-267 397 -499 550 -94 62 -329 183 -357 183 -7 0 32 -26 87 -59 274 -162 500
-384 613 -601 47 -90 101 -223 101 -249 0 -18 -108 -167 -178 -246 -20 -22
-56 -48 -81 -57 -24 -10 -61 -31 -82 -48 -21 -16 -40 -30 -42 -30 -2 0 -9 25
-16 56 l-13 56 38 56 c41 59 96 104 150 124 19 7 34 16 34 20 0 27 -157 -18
-219 -63 -42 -30 -43 -30 -48 -9 -3 12 -23 58 -44 102 -22 44 -39 84 -39 89 0
5 18 29 40 53 42 45 106 79 173 91 52 10 29 25 -39 25 -61 0 -144 -23 -194
-55 l-37 -23 -70 88 c-78 98 -78 95 -14 164 40 43 122 86 164 86 18 0 26 4 21
11 -4 8 -33 10 -83 7 -81 -5 -135 -26 -201 -78 l-36 -28 -44 34 c-25 19 -77
53 -117 75 -79 44 -78 42 -38 118 20 40 90 98 134 112 60 19 62 32 4 26 -98
-11 -206 -76 -253 -153 -16 -24 -27 -33 -38 -29 -25 10 -174 7 -210 -4 -33
-10 -34 -10 -27 16 18 73 99 174 188 234 49 33 56 40 32 35 -138 -32 -299
-181 -337 -309 -7 -25 -33 -65 -64 -99 -90 -99 -137 -229 -150 -418 -4 -55 -8
-99 -10 -97 -2 1 -8 51 -14 111 -32 311 72 581 295 769 113 96 315 184 480
210 72 12 321 -2 400 -22z m3648 -5 c178 -53 342 -160 444 -288 162 -202 232
-478 189 -738 l-12 -75 -7 120 c-4 66 -14 149 -22 185 -22 92 -77 197 -135
259 -28 29 -50 60 -50 68 0 33 -68 140 -126 197 -58 59 -150 117 -206 130 -16
3 -28 5 -28 2 0 -2 22 -18 49 -36 83 -53 168 -160 186 -233 7 -27 6 -27 -21
-17 -30 12 -189 15 -216 5 -12 -5 -21 2 -32 22 -37 73 -165 152 -259 161 -53
5 -60 -11 -10 -21 61 -12 154 -102 173 -166 8 -30 7 -31 -48 -61 -31 -17 -84
-50 -116 -75 l-59 -44 -30 25 c-56 47 -128 77 -198 82 -39 3 -74 0 -85 -6 -17
-10 -16 -11 11 -12 44 0 125 -42 166 -86 64 -68 64 -68 -2 -151 -32 -40 -62
-80 -67 -89 -8 -14 -14 -13 -49 9 -53 33 -135 57 -197 57 -68 0 -91 -15 -39
-25 67 -12 131 -46 173 -91 22 -24 40 -48 40 -52 0 -5 -17 -47 -39 -93 -21
-46 -41 -92 -44 -101 -5 -15 -13 -13 -57 17 -52 35 -134 65 -177 65 -32 0 -29
-15 7 -30 55 -23 109 -69 146 -125 l37 -55 -12 -56 -13 -55 -34 26 c-19 14
-58 37 -88 50 -37 16 -69 42 -102 79 -78 91 -164 210 -164 227 0 23 44 137 81
212 59 118 143 232 254 343 122 123 218 198 375 293 124 75 101 72 -65 -9
-325 -158 -573 -391 -697 -655 l-30 -65 -44 49 c-25 28 -54 53 -65 56 -25 8
-22 24 26 143 114 282 380 515 704 616 125 40 171 45 341 42 133 -3 167 -7
243 -30z m26 -741 c1 -148 -44 -288 -131 -405 -23 -30 -83 -95 -132 -144 -50
-49 -82 -86 -71 -81 11 4 58 18 105 31 390 108 838 -11 1115 -297 57 -58 59
-61 30 -56 -16 4 -69 14 -117 23 -81 15 -87 18 -99 48 -28 66 -131 158 -209
185 l-35 12 47 -48 c46 -47 87 -120 88 -155 0 -14 -8 -18 -32 -18 -18 -1 -65
-6 -105 -13 l-71 -13 -16 33 c-22 46 -83 111 -135 145 -62 39 -72 35 -29 -9
46 -48 77 -116 78 -170 0 -41 0 -41 -72 -81 l-73 -40 -12 34 c-17 48 -66 116
-105 146 -42 32 -110 69 -116 63 -3 -2 12 -23 33 -46 49 -55 84 -132 91 -205
l6 -60 -68 -51 -68 -51 -13 49 c-18 69 -38 104 -91 162 -39 41 -106 87 -127
87 -3 0 10 -16 30 -37 60 -62 105 -183 105 -283 0 -37 -2 -40 -34 -45 -19 -4
-44 -4 -55 0 -25 8 -233 254 -258 305 -12 23 -18 59 -18 105 0 123 11 137 326
440 110 105 154 169 197 283 22 56 26 84 26 175 1 60 4 98 8 85 3 -13 6 -59 7
-103z m-4224 23 c0 -110 25 -200 82 -297 41 -70 102 -135 283 -302 73 -67 128
-128 150 -165 32 -53 35 -65 35 -134 0 -94 -15 -123 -126 -257 -143 -172 -148
-175 -218 -156 -23 6 -23 8 -17 72 10 103 41 183 93 241 25 27 40 50 34 50
-22 0 -89 -49 -130 -97 -51 -57 -67 -86 -84 -152 l-13 -49 -68 51 -68 51 5 50
c8 75 42 158 87 209 22 25 40 48 40 51 0 4 -22 -5 -48 -18 -67 -34 -129 -97
-161 -165 l-27 -57 -72 39 c-72 39 -72 39 -72 80 1 54 32 122 78 170 37 38 37
45 -1 26 -48 -25 -112 -85 -146 -138 l-36 -56 -65 12 c-36 7 -82 12 -103 13
-38 0 -39 0 -32 33 10 47 49 109 91 146 20 18 34 34 32 36 -2 2 -27 -7 -56
-20 -65 -30 -153 -112 -177 -164 -17 -38 -18 -39 -104 -55 -47 -9 -99 -19
-116 -23 -30 -5 -29 -5 20 47 281 292 732 415 1125 306 47 -13 94 -27 105 -31
11 -4 -21 33 -71 82 -191 189 -264 342 -264 551 0 55 7 112 14 112 0 0 1 -42
1 -92z m1874 -83 c23 -8 56 -26 75 -40 43 -33 94 -129 102 -192 l7 -48 -30 40
c-17 22 -74 81 -127 130 -113 104 -129 125 -93 125 14 0 43 -7 66 -15z m529
-16 c-12 -16 -56 -58 -97 -91 -40 -34 -94 -89 -119 -122 l-44 -61 7 45 c9 59
49 148 83 183 42 44 107 74 165 76 l28 1 -23 -31z m-448 -219 c45 -47 93 -130
106 -183 6 -27 3 -25 -40 20 l-46 48 30 -68 c32 -71 70 -212 70 -260 0 -24 -9
-15 -59 60 -82 122 -191 245 -316 354 -58 51 -103 94 -101 96 7 7 88 -37 151
-82 72 -51 139 -121 191 -200 63 -94 54 -40 -19 113 -36 75 -67 147 -70 159
-5 22 -4 22 27 7 17 -9 51 -38 76 -64z m395 48 c-4 -18 -31 -80 -60 -138 -29
-58 -57 -123 -63 -145 l-11 -40 22 29 c119 159 187 222 300 282 38 20 71 34
73 31 2 -2 -17 -21 -43 -43 -141 -113 -297 -283 -393 -429 l-52 -80 6 50 c10
73 42 185 71 251 14 31 24 59 22 60 -2 2 -23 -20 -46 -48 -38 -47 -42 -50 -35
-23 12 52 52 129 91 174 32 38 107 101 120 101 3 0 1 -15 -2 -32z m-805 -59
c91 -46 171 -145 227 -284 40 -99 43 -129 4 -54 -57 113 -94 155 -259 297 -34
29 -62 57 -62 63 0 12 45 1 90 -22z m1191 5 c-11 -14 -60 -59 -108 -99 -99
-83 -145 -138 -197 -240 -43 -83 -44 -81 -12 13 53 155 145 273 251 324 76 36
93 36 66 2z m-1393 -38 c15 -8 43 -31 62 -51 l35 -37 -65 32 c-76 38 -92 49
-84 61 7 13 21 11 52 -5z m1572 0 c0 -7 -31 -30 -70 -50 -38 -21 -70 -33 -70
-28 0 19 100 92 128 92 6 0 12 -6 12 -14z m-3540 -255 c0 -8 -85 -51 -100 -51
-6 0 6 32 26 72 l36 71 19 -43 c10 -23 19 -45 19 -49z m5539 21 c17 -38 31
-72 31 -75 0 -6 -96 37 -109 49 -5 5 31 94 39 94 4 0 21 -31 39 -68z m-3694
-185 c60 -30 121 -82 167 -139 l33 -42 -75 57 c-87 67 -175 112 -251 129 -85
18 -84 31 1 26 54 -4 89 -12 125 -31z m1955 24 c0 -4 -28 -14 -62 -21 -83 -16
-179 -67 -269 -143 -86 -72 -68 -37 28 54 56 54 118 93 173 110 35 10 130 11
130 0z m-1721 -100 c45 -45 69 -110 76 -206 l5 -60 -21 58 c-11 31 -42 100
-69 152 -27 52 -44 95 -39 95 5 0 27 -18 48 -39z m1305 -62 c-26 -52 -58 -123
-70 -159 l-23 -65 5 60 c11 110 34 174 81 223 23 25 45 43 49 40 3 -3 -16 -48
-42 -99z m-1652 58 c29 -13 64 -34 78 -46 25 -22 25 -22 -20 1 -41 21 -58 23
-193 23 -81 0 -147 1 -147 2 0 4 65 36 90 44 42 14 136 3 192 -24z m2187 22
c21 -6 47 -19 60 -28 21 -16 17 -17 -101 -13 -103 3 -132 1 -180 -15 -32 -11
-58 -18 -58 -17 0 9 81 54 121 68 53 18 108 20 158 5z m-1646 -254 c-1 -38 -9
-90 -18 -115 l-15 -45 5 40 c2 22 5 83 5 135 1 79 3 92 13 75 7 -12 11 -49 10
-90z m935 -80 l0 -60 -13 50 c-15 57 -18 129 -7 165 5 20 8 12 13 -35 4 -33 7
-87 7 -120z m-3043 119 c120 -31 205 -79 517 -292 60 -41 119 -62 177 -62 82
0 111 25 221 188 30 45 56 79 58 77 7 -7 -109 -196 -170 -276 -31 -41 -136
-154 -233 -250 -196 -193 -259 -276 -350 -464 -63 -129 -83 -186 -137 -395
-30 -118 -41 -182 -45 -267 -6 -111 -6 -111 22 -139 27 -27 27 -27 134 -21
166 10 306 53 443 137 27 17 48 27 48 25 0 -3 -20 -55 -45 -115 -25 -60 -45
-116 -45 -125 0 -21 33 -19 80 5 22 11 42 20 44 20 3 0 -17 -34 -45 -76 -67
-99 -142 -258 -173 -368 -39 -134 -40 -132 45 -140 40 -3 89 -14 111 -24 l39
-17 -55 -70 c-131 -163 -205 -404 -147 -476 18 -22 21 -23 47 -9 15 8 72 58
127 110 75 71 99 89 94 70 -23 -83 -39 -178 -45 -269 l-7 -104 -95 77 c-338
274 -625 635 -820 1031 -212 430 -305 810 -317 1287 -8 310 15 536 83 820 24
102 27 107 55 113 119 26 276 26 384 -1z m5474 15 l68 -12 17 -58 c28 -102 74
-350 87 -469 16 -149 16 -503 0 -650 -77 -704 -389 -1357 -886 -1855 -118
-118 -320 -295 -337 -295 -3 0 -8 46 -11 103 -4 56 -16 142 -27 191 -11 50
-20 92 -20 95 0 3 42 -36 93 -86 90 -88 148 -130 167 -118 13 8 30 73 30 117
0 94 -84 274 -182 391 -22 27 -37 52 -32 56 17 16 78 31 146 38 65 6 68 7 68
32 0 36 -72 246 -111 322 -17 35 -56 101 -85 147 -29 45 -52 82 -49 82 2 0 22
-9 44 -21 86 -45 94 -12 31 132 -22 49 -40 95 -40 100 0 6 13 1 29 -10 54 -38
195 -101 276 -121 44 -12 128 -24 187 -27 106 -6 106 -6 133 22 27 26 28 29
22 118 -13 215 -96 515 -196 710 -90 176 -129 226 -351 452 -205 208 -262 279
-366 459 -46 81 -9 43 67 -70 86 -126 120 -149 209 -141 70 6 108 25 290 147
175 116 215 139 304 175 135 53 279 68 425 44z m-2773 -288 c-21 -39 -79 -88
-114 -96 -52 -11 -130 36 -164 98 -8 17 -6 16 31 -2 61 -31 176 -30 222 3 19
13 35 25 37 25 1 1 -4 -12 -12 -28z m-1055 -137 c23 -27 -22 -45 -62 -23 -16
8 -18 13 -8 25 15 19 53 18 70 -2z m1909 1 c16 -20 11 -24 -34 -32 -28 -4 -37
-2 -42 12 -13 32 52 49 76 20z m-1146 -245 c43 -26 79 -71 101 -126 15 -37 13
-36 -60 39 -79 81 -131 112 -168 102 -18 -5 -19 -4 -7 5 22 16 93 6 134 -20z
m388 10 c-25 -12 -75 -53 -122 -102 -63 -65 -78 -77 -70 -53 17 44 45 86 82
122 39 38 71 52 118 52 l35 0 -43 -19z m-1240 -30 c95 -31 150 -37 207 -20 50
14 48 7 -6 -22 -94 -50 -158 -43 -303 36 l-65 36 38 0 c21 0 79 -13 129 -30z
m2098 -17 c-101 -56 -179 -67 -255 -38 -63 24 -62 32 3 27 43 -2 80 4 152 27
52 16 115 30 140 30 l45 1 -85 -47z m-795 -70 c17 -9 55 -34 85 -58 62 -48 94
-65 190 -104 83 -34 131 -72 175 -137 44 -66 66 -124 114 -297 22 -78 43 -150
46 -159 6 -16 0 -18 -55 -18 -95 0 -137 -32 -59 -45 66 -11 195 -82 252 -138
50 -49 97 -128 97 -163 0 -24 -113 -9 -162 22 -94 60 -230 104 -314 104 l-49
-1 81 -32 c112 -46 170 -82 199 -124 l25 -37 -83 -77 -82 -76 -90 45 c-127 64
-282 120 -410 149 -117 26 -187 52 -201 74 -14 23 -8 217 11 329 41 245 98
333 234 361 86 18 119 0 170 -89 6 -10 18 -8 55 9 71 31 136 72 136 85 0 18
-103 108 -146 129 -55 26 -134 45 -164 39 -14 -3 -59 -15 -100 -27 -64 -19
-82 -29 -125 -74 -96 -100 -165 -98 -265 7 -35 37 -60 52 -113 70 -136 44
-264 12 -366 -91 l-53 -53 24 -19 c12 -11 54 -35 93 -54 l69 -35 16 22 c54 77
65 85 127 85 77 -1 155 -42 194 -103 51 -80 99 -316 99 -488 0 -120 -4 -124
-185 -169 -167 -42 -273 -80 -421 -150 l-111 -52 -77 75 c-56 55 -75 80 -71
93 11 34 96 98 173 129 125 50 122 49 72 49 -70 1 -155 -24 -265 -79 -69 -34
-118 -52 -159 -56 -58 -7 -58 -7 -51 17 36 122 159 234 309 281 39 12 75 25
80 30 15 12 -41 28 -101 28 -48 0 -55 2 -50 18 2 9 23 86 46 171 73 272 130
354 296 425 50 21 126 64 170 96 101 72 116 80 157 80 51 0 73 -23 104 -102
31 -83 88 -148 129 -148 36 0 90 53 121 118 14 31 33 72 42 90 24 53 65 60
137 25z m-1457 -266 c38 -20 77 -37 86 -37 9 0 16 -4 16 -9 0 -14 -104 -22
-159 -11 -62 12 -105 33 -125 62 -16 23 -21 84 -10 125 6 21 10 18 64 -36 33
-32 89 -74 128 -94z m2522 75 c0 -12 -7 -38 -15 -58 -21 -52 -86 -78 -191 -77
-104 0 -121 10 -56 33 66 23 150 80 198 133 l39 43 12 -26 c7 -14 12 -35 13
-48z m-5148 -743 c54 -7 98 -15 98 -18 0 -3 -32 -35 -71 -71 l-72 -66 17 -93
c10 -51 15 -95 13 -97 -3 -3 -43 14 -91 38 l-85 42 -79 -42 c-44 -23 -84 -42
-89 -42 -5 0 -3 40 6 95 l15 96 -67 67 c-37 37 -67 71 -67 75 0 4 9 7 20 7 10
0 53 5 95 11 l76 12 46 91 46 91 45 -92 46 -91 98 -13z m7905 1 c51 -7 93 -15
93 -19 0 -3 -30 -36 -66 -72 l-66 -67 16 -93 c8 -51 14 -95 11 -97 -2 -2 -43
15 -90 39 l-86 44 -79 -42 c-44 -24 -84 -43 -88 -43 -5 0 -1 43 7 95 l15 96
-67 67 c-37 37 -67 70 -67 73 0 3 43 11 96 19 l95 13 46 91 46 91 45 -91 45
-92 94 -12z m-5127 -320 c0 -3 -26 -14 -57 -24 -73 -23 -225 -85 -237 -97 -6
-5 24 1 65 12 41 11 116 29 168 40 199 41 173 15 -89 -85 -63 -24 -104 -46
-98 -52 3 -2 36 5 74 16 38 11 71 20 73 20 2 0 -47 -53 -111 -117 -144 -148
-249 -296 -304 -428 -21 -51 -16 -46 59 63 79 115 220 276 327 372 l84 75 -37
-57 c-88 -137 -106 -167 -144 -238 -40 -73 -104 -220 -117 -270 -4 -14 17 20
47 76 112 210 330 511 407 561 14 9 -3 -14 -38 -52 -107 -117 -181 -242 -292
-492 -78 -173 -94 -226 -131 -416 -17 -88 -36 -174 -43 -191 l-13 -31 -17 54
c-21 70 -21 269 -1 401 17 113 17 110 6 110 -4 0 -29 -46 -55 -102 -54 -117
-158 -310 -216 -400 -49 -75 -55 -65 -46 72 11 162 67 356 141 488 25 45 32
72 17 72 -9 0 -189 -149 -306 -254 -89 -80 -91 -74 -20 64 117 228 394 501
573 566 112 40 42 42 -263 9 -82 -8 -150 -14 -152 -12 -2 2 32 27 75 55 138
91 280 147 516 202 108 25 122 26 138 12 9 -8 17 -18 17 -22z m2345 -36 c134
-39 292 -113 375 -175 l55 -41 -55 6 c-411 46 -493 46 -362 -2 31 -12 86 -41
122 -64 135 -88 347 -320 438 -479 33 -58 65 -139 56 -139 -4 0 -38 29 -78 64
-121 108 -288 246 -297 246 -16 0 -10 -18 27 -93 82 -163 120 -305 130 -487
l5 -115 -21 25 c-36 40 -115 181 -207 364 -47 94 -87 173 -89 175 -13 14 -13
-17 0 -100 31 -201 28 -346 -8 -431 l-13 -33 -12 40 c-6 22 -27 117 -46 210
-27 137 -45 198 -93 316 -113 275 -203 432 -323 563 -35 38 -54 64 -41 57 62
-33 297 -355 403 -553 63 -119 67 -115 16 15 -35 89 -123 252 -204 376 l-54
84 56 -49 c122 -104 326 -339 392 -451 38 -65 39 -45 2 28 -75 150 -185 297
-324 432 -83 81 -82 87 3 56 31 -12 69 -12 57 0 -6 5 -76 35 -157 67 -82 33
-148 63 -148 68 0 13 104 -3 242 -39 70 -18 125 -29 123 -24 -6 9 -187 80
-252 100 -48 14 -49 15 -28 40 15 16 21 16 103 -2 48 -11 141 -35 207 -55z
m-1025 10 c258 -58 432 -130 526 -217 52 -49 56 -55 45 -76 -14 -25 -68 -61
-92 -61 -8 0 -53 18 -98 40 -46 22 -86 38 -89 35 -3 -3 9 -24 27 -48 17 -23
41 -60 51 -83 33 -69 64 -297 43 -317 -3 -4 -26 28 -50 71 -24 42 -55 91 -69
107 l-25 30 8 -50 c4 -27 8 -106 7 -175 0 -99 -5 -142 -23 -208 -13 -46 -25
-81 -28 -79 -2 3 -17 57 -33 121 -25 96 -53 176 -63 176 -1 0 -2 -39 -2 -88
l0 -87 -62 -115 c-67 -124 -83 -188 -65 -253 10 -36 10 -38 -11 -31 -28 8
-112 61 -127 80 -23 27 -29 14 -28 -64 0 -121 -24 -189 -109 -310 l-44 -62
-46 62 c-83 113 -117 206 -113 315 1 32 2 62 1 66 0 5 -22 -7 -48 -26 -43 -31
-105 -67 -116 -67 -2 0 -2 34 1 76 l5 76 -69 135 c-69 134 -69 136 -69 216 l1
80 -20 -44 c-10 -24 -31 -93 -46 -153 -15 -60 -30 -105 -33 -99 -13 20 -45
178 -52 248 -5 61 5 179 21 240 9 37 -59 -50 -104 -131 l-43 -79 4 110 c6 141
26 214 82 295 25 36 45 69 45 73 0 4 -38 -13 -85 -38 -47 -25 -97 -45 -111
-45 -15 0 -41 15 -66 39 l-42 39 51 49 c93 91 279 170 538 228 66 15 167 32
225 39 118 13 195 6 400 -40z m-3711 -624 c47 -6 92 -13 100 -16 10 -3 -8 -28
-57 -77 l-72 -72 15 -85 c8 -47 15 -91 15 -98 0 -7 -35 7 -86 35 l-87 46 -83
-41 c-47 -23 -88 -42 -92 -42 -5 0 -1 42 8 94 l17 94 -68 68 c-37 37 -66 71
-64 74 2 4 45 13 95 19 l91 13 46 91 46 92 45 -92 46 -91 85 -12z m7115 0 c50
-7 94 -14 98 -16 4 -3 -25 -35 -64 -72 l-71 -68 16 -94 c9 -52 15 -95 13 -97
-2 -2 -43 15 -91 39 l-87 43 -79 -42 c-43 -24 -83 -43 -88 -43 -4 0 -1 43 8
95 l17 94 -68 68 c-37 37 -68 70 -68 74 0 4 43 12 96 19 l95 13 46 91 46 91
45 -91 45 -92 91 -12z m-4480 -815 c133 -154 274 -314 314 -356 39 -42 72 -79
72 -82 0 -14 -327 51 -489 98 -244 70 -568 214 -759 338 l-72 46 31 52 c17 29
53 102 80 163 28 61 53 114 57 118 4 4 6 -35 4 -85 -3 -75 1 -103 18 -149 43
-116 110 -149 157 -79 35 52 45 90 105 401 l11 55 115 -120 c63 -66 223 -246
356 -400z m2035 347 c56 -290 108 -374 183 -294 58 61 73 108 73 224 0 59 3
104 7 100 3 -4 27 -55 53 -114 26 -59 62 -133 81 -164 19 -31 33 -58 32 -59
-19 -17 -216 -129 -316 -179 -264 -132 -503 -213 -797 -270 -157 -30 -205 -37
-205 -29 0 3 30 38 68 77 37 39 176 198 309 353 214 249 471 528 478 521 2 -2
17 -76 34 -166z m-4245 -320 l44 -88 93 -13 c51 -6 96 -14 99 -17 3 -3 -27
-36 -67 -72 l-72 -67 14 -75 c24 -131 29 -127 -73 -76 l-88 44 -84 -44 c-45
-24 -85 -42 -88 -40 -2 3 3 47 12 98 l16 93 -71 68 c-39 38 -69 70 -67 72 2 2
46 10 97 16 l93 13 44 88 c24 48 46 88 49 88 3 0 25 -40 49 -88z m6001 7 c24
-49 48 -84 60 -89 12 -4 50 -11 87 -15 102 -11 103 -14 24 -94 l-68 -69 11
-68 c6 -38 14 -82 17 -97 l6 -28 -92 46 -91 46 -86 -45 c-48 -25 -88 -44 -89
-43 -1 1 6 47 14 101 l16 99 -69 64 c-80 72 -79 77 23 88 37 4 75 11 87 15 12
5 36 40 60 89 21 44 42 81 45 81 3 0 24 -37 45 -81z m-5181 -723 c42 -18 66
-51 66 -93 0 -31 -2 -33 -27 -27 -37 9 -43 13 -43 28 0 23 -29 41 -42 28 -9
-9 -7 -19 10 -39 52 -65 60 -115 25 -155 -41 -47 -146 -19 -178 48 -17 36 -13
74 8 74 36 -1 56 -14 59 -38 2 -17 10 -28 22 -30 36 -7 39 14 7 58 -41 56 -42
110 -5 139 31 25 52 26 98 7z m4396 -21 c15 -8 38 -31 50 -51 26 -41 33 -33
-78 -95 -74 -42 -83 -59 -30 -59 21 0 40 10 65 35 29 29 38 33 58 25 22 -8 24
-12 14 -37 -23 -60 -74 -93 -144 -93 -79 0 -132 45 -150 127 -9 45 24 117 67
143 39 24 107 26 148 5z m-270 -176 c41 -88 76 -166 78 -174 4 -17 -51 -47
-71 -39 -8 3 -17 -2 -21 -11 -9 -26 -93 -58 -131 -51 -65 12 -124 88 -125 160
0 69 68 136 139 136 l31 0 -25 50 c-31 60 -31 64 -2 78 45 22 50 16 127 -149z
m-3940 86 c17 -9 30 -19 30 -24 0 -5 19 -11 42 -14 52 -7 103 -57 114 -112 13
-73 -44 -161 -117 -178 -38 -9 -99 11 -129 43 l-27 28 -26 -54 -27 -54 -33 16
c-17 9 -34 18 -36 20 -6 6 162 344 171 344 5 0 22 -7 38 -15z m365 -57 c14 -6
25 -15 25 -20 0 -9 -138 -339 -145 -346 -4 -5 -75 18 -75 24 0 6 130 314 141
337 11 20 19 21 54 5z m3193 -47 c10 -28 9 -30 -26 -44 -39 -16 -43 -14 -57
31 -5 19 -1 25 27 36 39 17 43 15 56 -23z m79 -194 l53 -128 -37 -15 c-19 -9
-39 -12 -43 -7 -9 10 -100 240 -100 252 0 11 41 30 59 28 9 -1 37 -56 68 -130z
m-173 69 c3 -13 8 -31 12 -39 3 -10 -3 -17 -20 -21 -15 -4 -33 -20 -42 -37
-15 -30 -15 -35 11 -111 15 -44 25 -81 24 -82 -7 -6 -72 -26 -74 -24 -6 6 -95
271 -93 273 2 1 18 7 37 14 27 9 36 9 43 -1 5 -10 12 -7 24 10 14 20 44 39 65
41 4 1 10 -10 13 -23z m-2880 -26 c47 -41 60 -84 45 -144 -6 -25 -15 -46 -19
-46 -5 0 -47 14 -95 31 -48 16 -89 28 -92 26 -2 -3 1 -15 7 -27 13 -25 49 -40
95 -40 25 0 35 -5 40 -21 9 -28 -4 -40 -51 -45 -28 -4 -51 1 -83 18 -61 32
-85 67 -85 125 1 96 57 153 151 153 44 0 58 -5 87 -30z m209 -76 c-4 -12 0
-12 22 -4 52 20 118 -12 136 -67 10 -31 8 -50 -16 -140 l-28 -104 -31 7 c-49
10 -51 17 -28 98 28 93 27 111 0 130 -48 34 -73 11 -102 -94 -23 -83 -24 -85
-52 -82 -53 6 -54 9 -17 142 18 69 35 130 38 137 3 8 14 8 44 1 28 -7 38 -14
34 -24z m2423 -9 c37 -24 68 -98 61 -148 -10 -76 -78 -132 -149 -123 -21 2
-38 3 -38 3 0 -1 7 -27 15 -57 8 -30 15 -56 15 -57 0 -4 -74 -22 -77 -19 -4 3
-103 357 -103 367 0 4 18 11 40 17 34 8 40 8 40 -6 0 -14 1 -14 13 1 36 48
127 59 183 22z m-1890 7 c20 -7 20 -8 -15 -194 l-36 -188 -27 0 c-14 0 -33 6
-41 14 -9 10 -28 12 -59 9 -85 -10 -148 49 -148 137 0 118 103 192 199 142 22
-12 42 -18 45 -14 2 4 7 28 11 55 8 50 18 55 71 39z m1324 -4 c0 -7 3 -23 6
-34 5 -20 1 -22 -55 -29 -34 -4 -61 -9 -61 -11 0 -2 14 -26 30 -52 17 -27 30
-54 30 -59 0 -6 -14 -13 -30 -17 -36 -7 -54 -43 -41 -80 16 -41 77 -50 112
-15 19 19 20 28 14 94 l-6 72 52 6 c57 7 69 0 69 -40 0 -16 -6 -23 -19 -23
-17 0 -19 -5 -15 -37 9 -58 12 -63 39 -63 22 0 25 -4 25 -35 0 -29 -4 -36 -26
-41 -27 -7 -74 9 -74 25 0 5 -13 -3 -28 -19 -54 -53 -162 -46 -206 13 -15 21
-21 43 -21 84 0 49 3 58 33 84 l33 29 -42 61 c-22 33 -39 63 -36 66 6 5 156
30 195 32 12 0 22 -5 22 -11z m-1072 -132 c52 -27 75 -62 79 -118 5 -72 -18
-116 -77 -146 -71 -37 -160 -14 -201 51 -31 49 -23 137 17 178 16 17 38 35 49
39 32 14 104 11 133 -4z m662 -5 c0 -5 3 -22 6 -38 6 -28 4 -31 -30 -37 -53
-10 -66 -36 -66 -133 l0 -83 -39 0 -39 0 -7 83 c-4 45 -5 109 -3 142 l3 60 38
3 c33 3 37 1 37 -19 0 -20 1 -21 13 -6 19 26 87 48 87 28z m-440 -92 c0 -105
9 -129 50 -129 50 0 60 21 60 121 l0 89 46 0 47 0 -7 -31 c-3 -17 -6 -83 -6
-145 l0 -114 -40 0 c-29 0 -40 4 -40 15 0 13 -5 13 -34 -1 -43 -21 -95 -12
-127 22 -22 24 -24 35 -27 145 l-4 119 41 0 41 0 0 -91z"/>
<path d="M2599 8596 c-86 -31 -176 -113 -199 -180 -31 -94 11 -211 125 -353
147 -182 271 -221 413 -127 92 60 141 152 127 238 -22 135 -190 352 -318 411
-58 28 -95 30 -148 11z m265 -235 c42 -55 76 -104 76 -109 0 -5 -7 -15 -15
-22 -12 -10 -20 -7 -46 14 -17 14 -35 26 -41 26 -5 0 -45 -28 -89 -62 -59 -45
-78 -65 -73 -77 28 -67 29 -72 14 -81 -8 -5 -18 -10 -22 -10 -11 0 -158 193
-158 207 0 6 9 15 21 18 15 5 29 -1 49 -20 l29 -28 75 58 c101 77 100 76 80
118 -14 30 -15 39 -4 52 7 8 16 15 20 15 4 0 41 -45 84 -99z"/>
<path d="M7660 8470 c-41 -26 -117 -75 -168 -108 l-93 -59 105 -81 c58 -45
107 -82 110 -82 6 0 127 372 123 377 -2 1 -36 -20 -77 -47z"/>
<path d="M3280 7701 c355 -98 588 -259 826 -571 138 -181 151 -196 159 -188
15 15 -16 137 -56 218 -94 189 -348 385 -637 490 -124 45 -225 69 -317 75
l-80 5 105 -29z m598 -233 c91 -68 185 -163 243 -245 115 -162 105 -161 -60 9
-89 92 -206 204 -259 249 -53 46 -101 87 -107 92 -22 22 133 -67 183 -105z"/>
<path d="M2870 7624 c-207 -55 -419 -336 -455 -601 -9 -69 6 -68 33 1 26 67
62 126 112 180 21 23 48 67 60 99 42 112 142 219 272 290 86 47 78 58 -22 31z
m-242 -255 c-61 -116 -132 -165 -94 -65 15 38 111 146 131 146 4 0 -13 -37
-37 -81z"/>
<path d="M5075 3793 c-97 -14 -258 -78 -320 -127 -18 -15 -17 -15 20 -1 230
87 483 83 730 -10 11 -4 -2 7 -30 25 -73 49 -178 90 -264 106 -78 14 -84 14
-136 7z"/>
<path d="M7251 1691 c-12 -12 -21 -30 -21 -42 0 -20 2 -20 51 8 60 34 66 47
22 51 -22 2 -38 -3 -52 -17z"/>
<path d="M6935 1520 c-42 -47 -7 -123 56 -123 61 0 88 66 48 117 -26 33 -77
36 -104 6z"/>
<path d="M3141 1544 c-40 -51 -13 -117 48 -117 62 0 98 68 61 116 -29 37 -80
37 -109 1z"/>
<path d="M3612 1367 c-8 -9 3 -17 49 -34 55 -20 59 -20 59 -4 0 41 -82 70
-108 38z"/>
<path d="M6230 1253 c-42 -53 1 -131 65 -119 42 8 68 42 61 81 -13 65 -87 87
-126 38z"/>
<path d="M4262 1177 c-44 -46 -12 -127 49 -127 35 0 69 39 69 78 0 65 -74 96
-118 49z"/>
<path d="M4626 1126 c-49 -48 -22 -126 43 -126 34 0 71 39 71 75 0 30 -29 63
-62 71 -21 4 -33 0 -52 -20z"/>
</g>
</svg>
